/* XPM */
static char *xpm_Tux[] = {
// Tux_58x64_c16
"58 64 16 1",
". c None",
"! c #CCCCCC",
"# c #B8B8B6",
"$ c #E5E5E3",
"% c #999999",
"& c #333333",
"' c #000000",
"( c #1A1817",
") c #7B7A78",
"= c #575757",
"~ c #9F7F42",
"| c #A57411",
"- c #F6BF0C",
"^ c #D6B96B",
"@ c #DDA10B",
"` c #6F4F0C",
"..........................................................",
"..........................................................",
"..........................................................",
"..........................................................",
"..........................................................",
"..........................................................",
"........................!!#$..............................",
"......................%&''''()$...........................",
".....................='''''''''%..........................",
"....................)''''''''=&').........................",
"...................$''''''''(==('#........................",
"...................)''''''''(((''&........................",
"...................=''''''''''''''#.......................",
"...................(''('''''''(''').......................",
"...................('&&('''&)=''''=.......................",
"...................&($!&''=$$$&'''&.......................",
"...................()%##''$#&!#'''&.......................",
"...................(%'=#'(!&'=$(''&.......................",
"...................=)&'~||~='&$'''(.......................",
"...................&=%|---^@|#%'''($......................",
"...................='@@-------|''''$......................",
"...................=`@-------@@('''#......................",
"...................)(@@---^-@@`'(&'=......................",
"...................)'~|@@@|@|^%'()&'$.....................",
"...................=(#~|@||~!!$&'&&'=.....................",
"..................!'&$#%~~^!!..#'''''!....................",
"..................&'#.!#!#!$....=''''&....................",
".................='=..$#!!......#'''''%...................",
"................%'(!....$........(''''(!..................",
"...............!''=..............='''''($.................",
"..............$('')$...$$....$$$$)('''''&$................",
"..............)''')$$...$...$$!##$&'('''')................",
".............$(''&$.............$!!('&'''($...............",
".............!'('#...............$$)'(('''%...............",
".............)''&..................!'&&(''&...............",
".............(('#...................&('('''!..............",
"............#'(&......$.............=''((''%..............",
"............&''%......$.............)''('''=..............",
"...........#'('!......$.............%''('''&..............",
"...........('(($......$.............%''('''($.............",
"..........#''&&$......$.............#''('''(..............",
"..........)''(&.......$.............%'(('''($.............",
"..........%(`'=.......$.............)'('(((&..............",
"..........!@-@()......$...........$^~''''(()..............",
"..........@@--@').....$...........@-|''''((^$.............",
"......^^^~@----|'=$..............$--|'''''|-^.............",
".....^@@@-------`'&!.............!@-@(('(`--^.............",
".....^@---------@'''#...........$#@@@@|||---^.............",
".....^@----------`'''!..........$!@@@@@@@----^............",
".....^@-----------(''#...........%|--@-@------^$..........",
".....!@-----------@()$..........#(|-------------$.........",
".....^@-----------@^...........%'(|-------------^.........",
".....^@------------@%........!=''(|-----------@^..........",
"....$|-------------@`=#$$$!%=''''`|---------@^^...........",
"....!@|-@----------@|'''(''''''''(@@------@@^.............",
".....^~|@|@@@-----@@`('''''''''''`|@----@|^$..............",
".......$^^||`|@@@@@``(=))%%%)%))&&||@@@@|^................",
"...........!#~``||```!...........)`||||`^.................",
"..............$^=``)..............%```~#..................",
".................$$................$$$....................",
"..........................................................",
"..........................................................",
"..........................................................",
".........................................................."};
