/* XPM */
static char *xpm_Tux_ecb[] = {
// Tux_ecb_58x64_c16
"58 64 16 1",
". c #7C7C7B",
"! c #7C747C",
"# c #737B7C",
"$ c #7C7B74",
"% c #7B7372",
"& c #70747C",
"' c #727B72",
"( c #6E6971",
") c #666666",
"= c #5C5C5A",
"~ c #6F7370",
"| c #78847E",
"- c #827C85",
"^ c #888C7B",
"@ c #8D8D8F",
"` c #72697B",
".!#!#$#$#$%#%.$#%#.%#.%#%.#$!#%#.$#$#%#$.#$#!.$.#$#%#$..&.",
"%'!$#$!#%$#$.!#%#$!#$!#$#%.!'$#.%#!$!#$!#%#$#%#$!#%$!#%#$$",
".%#%#%.$#!$#!'.#$!'$#$!!$#$#$&$!#%.&$!#$.#$%#$#%.!#'!$#!##",
"#!$#%#!#$!#%$#!.!'!&$!#$!#%#.%#$&.'.%#%#%#%#%#$&$#%#$#!'$%",
"!$#%#$#%.'!#%!$#$&$!#$$#%..%.#$%#!$&$!#%.!.%.$#$!'!$&$$!''",
"#!$#$#%#!.$#$#!%#$$#%#!%.!'%%!#!$&.%$!$#%#'!#!$!'!$#$!#%#!",
"$#%..%#$#%#!'!'.!.&$#$!.%()===)~%##$%$!$#%!#$#!'!'!$#$!'!&",
"#%#!#$#!$#$.!$#$&$#$'%$!=======))~|'$%'!$#!#%#$#%#%#$!'!#%",
"!'!'!#!$#%#$#$!#%#$#$'%=======&|-)~'|%!#$!#%#$#%.#$#%#$#!!",
"#.%#%#$#%.%'!$#%.%#%.$)=======#|-^=~#!.%#.$#!$!$#%#$!'!$.'",
"$#$!#%#$!#$&$&$.#.%#!%========!@#)=)!%#!$&$$#!'!$#$&$!'.%'",
"$!.&$$!#$&$!#$!#!'!#$~========))====$.%#.%#.!'!#%#%#%#$#!#",
"#%.$&.$&$.#$!#$$#!#$$)=)()==)==))===('.%#$%#%.$!#%#%.#%#$'",
"$$&..%#%#!$#%#%#%.$.!(=(&|(=((!!^~==~$#!'!#$$#$#%#$!#$&$!!",
"#!$#!#$$!'!#$!#!#%#!.()-!|&=!.^--~==)|%.!'!$#%!#$!#$$!$##!",
"#%#$#$!#$!#%.'.'!#$$!)!!-.)%-$&&|)==)'#$#.%#!$#$!#%#!'!$#'",
"%#$&$!#$&$!#!.$#$!$&$(%@-|-^@!)!`%==).$&$!#%#$!$#$#%#!#$!#",
"#$!$&$#!$#$#%#!$!'!#$(!|)##).$=(-!==)$#!$#%#$&$&$#%#$#$!''",
"!#%#$&$#.%#%#%#.$#'!$`(%#-!--^)!-)===.%#%.#$%$&$%#$$&$&$''",
"'!.%#$#%#$#.%#.%#$!#$)~^@@`&-@@%%(===$$%#'#%#!$!#%#!$#!'!!",
"!'!#$!$#%..%#$&$$#$'.%$^@@)$@@^^^%===~$.&$$#$#!'!#%#%.%#!&",
"#$#$#$#!$&$#!#$!#!.'%$~'$-|@@@$-!~=(=~.#!!#%!$#!'$#$$#.$&$",
"$&$!%#!'!$&$.%#$!'$'.(~$|-|@-||-@~)|$=%%.!$#$&$%!#%#!$&$!!",
"!$!'!$#$#$!'!.&$#%#!.(~@^$-`---^||=@@)%.!$!'!$!$#%$#$#$!$#",
"#!#!'!$#!$#!'.$#!.%!.)(|@^'.-^--).)=)==|'#.!'.#%.#%%#%#$'%",
"$$!'!$#!$#%#.%#!$&$''&&`@@@@@@%)=)|)===%.#%.$&$!#%.#%.%#!#",
".&$!#%.'!$.$#$!'.$!!(!()$@@@@&))))%~====%%$!#$#$#%#%.&.%''",
"$%#$.!'!'!#.%#%$&.#=)()=)`@~))))))(~====~^%'!.$!'!#$#$&$!!",
"#!$&$#!'!#$&$!#$%$)=~!())`~=))))==!-)====)|#$&$#%#!#%.$#!!",
"$%#$!.$#!'!$#$#$.)==@%)(!'|'%)~-#||^'=====)|.%#$.!$#%#!$#'",
"%#!$#%#$#!$#!#!..==(@!!!!.'$)(%-@^@@%)`)===)!.%#.'!'!#%..#",
"#.$#%$#!$$#%#$!.)=)!-!'``!')`&`~%$-$^!).)==).%#!'!#%#$#!''",
"!$#%#!$#%#%#%#%.='~%!%`(``~&(~&`~`%^@@=%|)==#.#%!'!#%.$#''",
"#!$!#$#%#.$#$!#%%')%(~(&~%~(%~((%`%)^$%$#|==)$!$#!#$.%#%.!",
"$&$#!'!#$&.!#$|(##'&~~(`&|&````(&``&~(^!~|)=).$#%#%#$#!'!!",
"&$&$#.%$&.%.%#%)%```&&(&&#``(!~~``&&`(%)=~'==~.%#%#%#!$#%#",
"$&$&$!#$!'#%#.~)~&-(`&(`&#(&`(~(&(~~(`-)=)~==).$&$!#$$#$!!",
"!$&$%#.%#%#$.!).)!&((&``!-~```~(&~`&(~#==((==).%#%#$!'!#$#",
"#!$#$!'!.#$'.(=#%%(&~(&`$-`~``%`~&`&(&~)=~(==)$#$#%#$#%.'$",
"%$&$!'!$#.%$%=)|!(```&((|#&~&```~&(&%(.=)&====#$!$#!'!$!#!",
".%.!#!$&$!$!%==--!```((&-&`&((&`&(~~!(-))&)==).!'!$#!$#%''",
"%#.'!$&$$%#$&)'%!$```!``@#(&(&(~~`&~``'#.((#))$#!'!%.#%$!!",
"#%!$#$%!##%'|&|^^^%`````@#&(&(~~~((~!--#===(@&%%$#&$#$#!#!",
"!#%#$!.%''&$^^||^^--(``&--`~(&(&(~`!!@-)===(&$.$'!'#%#!$#'",
"$#$!###$.|-$$^^.||(%%)~(&-`~(&(&&``&|-^%====|#|.%.!%.%#!$#",
"#!#!'$%-&-^^-..-&@!)(-(&&`&(~`&(&``-^|^$)=)-@'-!#!$!%#!$''",
"!$#'!!!.^.$^-#|.-%^%=&!)~(!`((&(&)-@-@))^#.|-!-&#$#!#%#!''",
"$#$!$#$%|@.-....-.||==)!((&~&``(~`-@--|^^'$$|-!!%#!#!$!$#!",
"!$#$#'!.#'|.-.-..||@~==.!`(`&((&)&`@!-^|-'^^.-%%^%$#$#%#!!",
"#%#$!$##$^^....|.|-|@)&%(%(&`~~~'(#|-%-||||$..-%$-|!$!#$#'",
"$&$&$!##^$^'-|.-|...`-|&~(#(&`~(~$))|^%||-'|..|--!-!#%.#!!",
"!$&$!'%$|'$|.^.-|..|-@|~`(&``(`!&)=)^|'|-..-|-.||^.'!#%.$#",
"#!$#!%$@@|^||$..-$.||&-$.#&&!~%(===`@||.$-..!`--!..'#$!'#'",
"%$#!$#|$-^$|^-^'$.-|#!@-)())))=====-|||-|.--!-^.!!%!$!'!$!",
".&$%#!#--$^|^-@$$^-|||-#===========(&.$!&!$|~.$$%#!$#$!$''",
"%$#.!###!$!%^|&@@-@#|#!&)))))))))))#$^@-#.$'$$!!'!$!!$&$!!",
"#!$#$!%##%#'!%!^-@--&@--$.!..!.#.#!#^$-%||-$$~'#%#%#$.%#$!",
"%#'!#$#$!#%.!#.$#-@-`-|'%#.%#$#%#$!--^-!.@#$&$#$.#$#%#.!#'",
"#%.%.!.#$!#%#$!#!$.##&.'.%#.$#%.$#.!'|.$.%'!$#!$.%#%#%#..#",
"$!#$#%#!$#%#$!#!.'%##.#$#.#%#!$#!'!#''''$$!'#!$&$#!'!#$!''",
"!$#%#%#$&$#%#!$$&!#!!$$$!#$#$.#%#!!$%#!#!#!.%##$&%#$%#!'$'",
"!#$!#$!&$#!.#%$&.!!'!%$'!$!$&$'!!$#%$!'!'!#'$#%$!$'$#!$#&$",
"-%'!$#%.'#$!#%#!'!$$#!'#$.&$'%$#!'!'%.#$$#$%'!.'!!'!#$#!!!",
"`$'$#$#%$#%'!$&$#!#%#$%#$$#$#!'!'!#%$#'$#!#$#!'!!'$#$#%###"};
